<svg xmlns="http://www.w3.org/2000/svg" width="38" height="30" viewBox="0 0 38 30">
  <path fill="#0BC5BA" d="M30.15,29.92 C34.77,29.92 38.18,26.62 38.18,22.66 C38.18,18.26 35.21,15.29 30.81,15.29 C29.71,15.29 28.83,15.73 28.61,15.84 C28.83,11.11 32.79,6.82 37.19,6.05 L37.19,0 C30.7,0.66 21.35,6.16 21.35,19.91 C21.35,25.96 25.09,29.92 30.15,29.92 Z M9.8,29.92 C14.42,29.92 17.83,26.62 17.83,22.66 C17.83,18.26 14.75,15.29 10.46,15.29 C9.36,15.29 8.37,15.73 8.15,15.84 C8.37,11.11 12.33,6.82 16.84,6.05 L16.84,0 C10.24,0.66 1,6.16 1,19.91 C1,25.96 4.63,29.92 9.8,29.92 Z"/>
</svg>
